<svg width="42" height="57" viewBox="0 0 42 57" fill="none" xmlns="http://www.w3.org/2000/svg">
<path d="M3.27783 13.1617L4.91618 4.90832L6.52917 5.22928L4.88543 13.5122L4.68502 13.4724L6.32043 13.8332L7.93488 5.70015L9.54803 6.0211L7.92708 14.1878L9.36318 14.5047L10.9536 6.49197L12.5667 6.81308L10.9698 14.8593L12.3278 15.159L13.939 7.04192L15.5521 7.36303L13.9343 15.5136L15.3704 15.8305L16.9578 7.83374L18.571 8.15485L16.9771 16.1851L18.3745 16.4935L19.969 8.46112L21.5821 8.78207L19.9812 16.8481L21.4333 17.1686L23.0346 9.1016L24.6477 9.42254L23.04 17.5232L24.4374 17.8316L26.0459 9.7288L27.659 10.0498L26.0441 18.1862L27.48 18.5031L29.0646 10.5206L30.6777 10.8417L29.0867 18.8577L30.4833 19.166L32.0575 11.2352L33.6707 11.5563L32.09 19.5206L33.5261 19.8375L35.0764 12.027L36.6894 12.3481L35.1326 20.1921L36.5687 20.509L38.0951 12.819L39.7082 13.1399L38.1753 20.8636L39.2815 21.1078L41.4115 10.6197C41.6781 9.30658 40.8519 8.01988 39.5488 7.71875L6.41942 0.0636999C5.1005 -0.241057 3.78255 0.575931 3.46587 1.89454L0.886609 12.634L3.27783 13.1617Z" fill="#191313" style="mix-blend-mode:hard-light"/>
<path fill-rule="evenodd" clip-rule="evenodd" d="M1.41596 55.5412C1.61886 56.4155 2.4829 56.9661 3.35934 56.7796L38.6682 49.2653C39.5568 49.0762 40.1243 48.2011 39.9357 47.3109L38.6094 41.0496L-6.45655e-05 49.4389L1.41596 55.5412ZM29.432 45.6379C29.3321 45.1475 29.6479 44.6686 30.1374 44.5684C30.6269 44.4682 31.1046 44.7846 31.2046 45.275C31.3045 45.7654 30.9886 46.2442 30.4991 46.3444C30.0097 46.4446 29.5319 46.1283 29.432 45.6379ZM27.4434 48.9985C27.3435 48.5081 27.6593 48.0293 28.1488 47.9291C28.6383 47.8289 29.116 48.1453 29.216 48.6356C29.3159 49.126 29 49.6049 28.5105 49.7051C28.0211 49.8053 27.5433 49.4889 27.4434 48.9985ZM24.2751 46.6935C24.1752 46.2031 24.491 45.7242 24.9805 45.624C25.47 45.5238 25.9479 45.8402 26.0478 46.3306C26.1477 46.821 25.8319 47.2998 25.3424 47.4001C24.8529 47.5002 24.375 47.1839 24.2751 46.6935ZM22.2865 50.0541C22.1866 49.5637 22.5024 49.0849 22.9919 48.9847C23.4814 48.8845 23.9593 49.2008 24.0592 49.6912C24.1591 50.1816 23.8433 50.6605 23.3538 50.7607C22.8643 50.8609 22.3864 50.5445 22.2865 50.0541ZM19.1183 47.7491C19.0184 47.2587 19.3343 46.7798 19.8238 46.6796C20.3132 46.5795 20.791 46.8958 20.8909 47.3862C20.9908 47.8766 20.6751 48.3554 20.1856 48.4557C19.6961 48.5559 19.2182 48.2395 19.1183 47.7491ZM17.1297 51.1097C17.0298 50.6193 17.3457 50.1405 17.8352 50.0403C18.3246 49.9401 18.8024 50.2565 18.9023 50.7468C19.0022 51.2372 18.6865 51.7161 18.197 51.8163C17.7075 51.9165 17.2296 51.6002 17.1297 51.1097ZM13.9616 48.8047C13.8617 48.3143 14.1775 47.8356 14.667 47.7354C15.1565 47.6352 15.6342 47.9514 15.7341 48.4418C15.834 48.9322 15.5182 49.4111 15.0287 49.5113C14.5392 49.6114 14.0615 49.2951 13.9616 48.8047ZM11.973 52.1654C11.8731 51.675 12.1889 51.1963 12.6784 51.0961C13.1679 50.9959 13.6456 51.3121 13.7455 51.8025C13.8454 52.2929 13.5296 52.7717 13.0401 52.8719C12.5506 52.9721 12.0729 52.6558 11.973 52.1654ZM8.80464 49.8603C8.70476 49.3699 9.02063 48.8912 9.51007 48.791C9.99956 48.6908 10.4774 49.007 10.5774 49.4974C10.6773 49.9878 10.3614 50.4667 9.87193 50.5669C9.38244 50.6671 8.90456 50.3507 8.80464 49.8603Z" fill="#191313" style="mix-blend-mode:hard-light"/>
<path d="M2.44691 48.138L36.2347 41.4182L35.9148 39.8018L2.127 46.5216L2.44691 48.138Z" fill="#191313" style="mix-blend-mode:hard-light"/>
<path d="M1.85326 44.4864L35.8699 39.6763L35.6402 38.0447L1.62357 42.8548L1.85326 44.4864Z" fill="#191313" style="mix-blend-mode:hard-light"/>
<path d="M36.3376 23.449L36.7147 21.8451L3.85345 14.0923L3.4763 15.6962L36.3376 23.449Z" fill="#191313" style="mix-blend-mode:hard-light"/>
<path d="M1.65648 41.3466L35.5995 37.9352L35.4356 36.2955L1.49253 39.7068L1.65648 41.3466Z" fill="#191313" style="mix-blend-mode:hard-light"/>
<path d="M35.9426 25.2482L36.2622 23.6316L3.41806 17.1174L3.09846 18.7339L35.9426 25.2482Z" fill="#191313" style="mix-blend-mode:hard-light"/>
<path d="M1.37653 38.2009L35.4102 36.197L35.3141 34.5521L1.2804 36.556L1.37653 38.2009Z" fill="#191313" style="mix-blend-mode:hard-light"/>
<path d="M35.6872 27.0545L35.9336 25.425L2.60091 20.3701L2.35446 21.9996L35.6872 27.0545Z" fill="#191313" style="mix-blend-mode:hard-light"/>
<path d="M35.4856 28.9438L35.6724 27.3067L2.27477 23.486L2.08791 25.1231L35.4856 28.9438Z" fill="#191313" style="mix-blend-mode:hard-light"/>
<path d="M1.43684 34.7054L35.2974 34.425L35.2841 32.7772L1.42354 33.0576L1.43684 34.7054Z" fill="#191313" style="mix-blend-mode:hard-light"/>
<path d="M1.48072 31.7756L35.2807 32.6471L35.3233 30.9999L1.52336 30.1283L1.48072 31.7756Z" fill="#191313" style="mix-blend-mode:hard-light"/>
<path d="M35.3419 30.8353L35.4526 29.1913L1.97265 26.934L1.86199 28.578L35.3419 30.8353Z" fill="#191313" style="mix-blend-mode:hard-light"/>
</svg>
