<svg width="42" height="57" viewBox="0 0 42 57" fill="none" xmlns="http://www.w3.org/2000/svg">
<path d="M3.27789 13.1617L4.91624 4.90832L6.52923 5.22928L4.88549 13.5122L4.68508 13.4724L6.32049 13.8332L7.93494 5.70015L9.54809 6.0211L7.92714 14.1878L9.36324 14.5047L10.9536 6.49197L12.5668 6.81308L10.9699 14.8593L12.3279 15.159L13.939 7.04192L15.5522 7.36303L13.9344 15.5136L15.3705 15.8305L16.9579 7.83374L18.571 8.15485L16.9771 16.1851L18.3746 16.4935L19.969 8.46112L21.5822 8.78207L19.9812 16.8481L21.4334 17.1686L23.0346 9.1016L24.6478 9.42254L23.0401 17.5232L24.4375 17.8316L26.0459 9.7288L27.6591 10.0498L26.0442 18.1862L27.4801 18.5031L29.0646 10.5206L30.6778 10.8417L29.0867 18.8577L30.4834 19.166L32.0576 11.2352L33.6707 11.5563L32.09 19.5206L33.5261 19.8375L35.0765 12.027L36.6894 12.3481L35.1326 20.1921L36.5687 20.509L38.0952 12.819L39.7083 13.1399L38.1754 20.8636L39.2816 21.1078L41.4116 10.6197C41.6782 9.30657 40.852 8.01988 39.5489 7.71875L6.41948 0.0636999C5.10056 -0.241057 3.78261 0.575931 3.46593 1.89454L0.88667 12.634L3.27789 13.1617Z" fill="white" fill-opacity="0.7" style="mix-blend-mode:hard-light"/>
<path fill-rule="evenodd" clip-rule="evenodd" d="M1.41602 55.5412C1.61892 56.4155 2.48296 56.9661 3.3594 56.7796L38.6683 49.2653C39.5568 49.0762 40.1243 48.2011 39.9358 47.3109L38.6095 41.0496L-3.53031e-06 49.4389L1.41602 55.5412ZM29.4321 45.6379C29.3321 45.1475 29.648 44.6686 30.1375 44.5684C30.627 44.4682 31.1047 44.7846 31.2046 45.275C31.3045 45.7654 30.9887 46.2442 30.4992 46.3444C30.0097 46.4446 29.532 46.1283 29.4321 45.6379ZM27.4435 48.9985C27.3435 48.5081 27.6594 48.0293 28.1489 47.9291C28.6384 47.8289 29.1161 48.1453 29.216 48.6356C29.3159 49.126 29.0001 49.6049 28.5106 49.7051C28.0211 49.8053 27.5434 49.4889 27.4435 48.9985ZM24.2751 46.6935C24.1752 46.2031 24.4911 45.7242 24.9806 45.624C25.4701 45.5238 25.9479 45.8402 26.0479 46.3306C26.1478 46.821 25.8319 47.2998 25.3424 47.4001C24.8529 47.5002 24.3751 47.1839 24.2751 46.6935ZM22.2865 50.0541C22.1867 49.5637 22.5025 49.0849 22.992 48.9847C23.4815 48.8845 23.9593 49.2008 24.0593 49.6912C24.1592 50.1816 23.8433 50.6605 23.3538 50.7607C22.8643 50.8609 22.3865 50.5445 22.2865 50.0541ZM19.1184 47.7491C19.0185 47.2587 19.3343 46.7798 19.8238 46.6796C20.3133 46.5795 20.791 46.8958 20.891 47.3862C20.9909 47.8766 20.6751 48.3554 20.1857 48.4557C19.6962 48.5559 19.2183 48.2395 19.1184 47.7491ZM17.1298 51.1097C17.0299 50.6193 17.3457 50.1405 17.8352 50.0403C18.3247 49.9401 18.8024 50.2565 18.9024 50.7468C19.0023 51.2372 18.6865 51.7161 18.1971 51.8163C17.7076 51.9165 17.2297 51.6002 17.1298 51.1097ZM13.9616 48.8047C13.8617 48.3143 14.1776 47.8356 14.6671 47.7354C15.1565 47.6352 15.6343 47.9514 15.7342 48.4418C15.8341 48.9322 15.5183 49.4111 15.0288 49.5113C14.5393 49.6114 14.0615 49.2951 13.9616 48.8047ZM11.973 52.1654C11.8731 51.675 12.189 51.1963 12.6785 51.0961C13.1679 50.9959 13.6457 51.3121 13.7456 51.8025C13.8455 52.2929 13.5297 52.7717 13.0402 52.8719C12.5507 52.9721 12.0729 52.6558 11.973 52.1654ZM8.8047 49.8603C8.70482 49.3699 9.02069 48.8912 9.51014 48.791C9.99962 48.6908 10.4775 49.007 10.5774 49.4974C10.6773 49.9878 10.3615 50.4667 9.872 50.5669C9.3825 50.6671 8.90462 50.3507 8.8047 49.8603Z" fill="white" fill-opacity="0.7" style="mix-blend-mode:hard-light"/>
<path d="M2.44697 48.138L36.2348 41.4182L35.9149 39.8018L2.12706 46.5216L2.44697 48.138Z" fill="white" fill-opacity="0.7" style="mix-blend-mode:hard-light"/>
<path d="M1.85332 44.4864L35.87 39.6763L35.6403 38.0447L1.62364 42.8548L1.85332 44.4864Z" fill="white" fill-opacity="0.7" style="mix-blend-mode:hard-light"/>
<path d="M36.3377 23.449L36.7148 21.8451L3.85351 14.0923L3.47636 15.6962L36.3377 23.449Z" fill="white" fill-opacity="0.7" style="mix-blend-mode:hard-light"/>
<path d="M1.65654 41.3466L35.5996 37.9352L35.4356 36.2955L1.49259 39.7068L1.65654 41.3466Z" fill="white" fill-opacity="0.7" style="mix-blend-mode:hard-light"/>
<path d="M35.9427 25.2482L36.2623 23.6316L3.41812 17.1174L3.09852 18.7339L35.9427 25.2482Z" fill="white" fill-opacity="0.7" style="mix-blend-mode:hard-light"/>
<path d="M1.3766 38.2009L35.4103 36.197L35.3141 34.5521L1.28046 36.556L1.3766 38.2009Z" fill="white" fill-opacity="0.7" style="mix-blend-mode:hard-light"/>
<path d="M35.6872 27.0545L35.9337 25.425L2.60097 20.3701L2.35452 21.9996L35.6872 27.0545Z" fill="white" fill-opacity="0.7" style="mix-blend-mode:hard-light"/>
<path d="M35.4856 28.9438L35.6725 27.3067L2.27483 23.486L2.08797 25.1231L35.4856 28.9438Z" fill="white" fill-opacity="0.7" style="mix-blend-mode:hard-light"/>
<path d="M1.4369 34.7054L35.2975 34.425L35.2842 32.7772L1.4236 33.0576L1.4369 34.7054Z" fill="white" fill-opacity="0.7" style="mix-blend-mode:hard-light"/>
<path d="M1.48078 31.7756L35.2807 32.6471L35.3234 30.9999L1.52342 30.1283L1.48078 31.7756Z" fill="white" fill-opacity="0.7" style="mix-blend-mode:hard-light"/>
<path d="M35.342 30.8353L35.4527 29.1913L1.97271 26.934L1.86205 28.578L35.342 30.8353Z" fill="white" fill-opacity="0.7" style="mix-blend-mode:hard-light"/>
</svg>
