<svg width="107" height="33" viewBox="0 0 107 33" fill="none" xmlns="http://www.w3.org/2000/svg">
<path d="M8.27921 32.7364C8.34541 32.6946 8.61172 32.7964 8.72698 32.7787C8.59631 33.2214 8.04041 32.8884 8.27921 32.7364ZM20.104 0.591238C20.0084 0.700682 19.9127 0.810121 19.8171 0.919561C20.0889 0.990671 20.4542 0.910345 20.7065 1.01423C20.7477 1.03168 20.6407 1.34854 20.7383 1.36269C20.836 1.37675 20.8171 0.943724 20.9591 0.897402C21.1184 0.846765 21.8478 1.14845 22.1004 1.14113C23.0451 1.11189 23.9979 0.864599 24.9445 1.04444C23.9673 1.36481 24.952 1.69087 25.2258 1.55203C25.2864 1.51988 25.2767 0.714846 26.2572 0.917548C26.8803 1.04618 26.3048 2.19709 27.3446 1.62051C26.545 0.815371 27.3313 0.871798 27.9581 0.845034C28.0661 0.840293 28.9388 0.96126 29.3242 0.925605C29.4561 0.913203 29.6571 0.491523 29.832 0.480456C29.9524 0.473159 30.0435 0.703692 30.2222 0.691951C31.0556 0.639991 31.8752 0.622065 32.71 0.700007C32.2222 1.78363 33.093 1.16183 33.1321 1.21364C33.331 1.50785 32.4314 1.5916 32.7872 1.77561C33.2843 1.74204 33.7815 1.70847 34.2787 1.6749C33.8706 1.54185 34.8188 0.762393 34.9934 1.11696C34.9165 0.159431 37.2593 1.95035 37.6159 1.63059C37.6901 1.56304 37.204 1.0898 38.3318 1.30629C38.454 1.33035 38.4077 1.61925 38.4718 1.59232C38.5102 1.57612 38.7424 0.657901 38.9898 1.1653C39.0802 1.35049 38.5022 1.95356 39.7714 1.71116C39.266 0.776588 41.5314 1.20503 41.9482 1.43924C41.865 1.31368 41.7817 1.18813 41.6984 1.06257C42.1105 1.40127 42.1848 1.08353 42.2776 1.10084C42.6517 1.1704 43.166 1.49061 43.5144 1.46139C43.9222 1.42777 43.9235 0.846561 44.3989 1.07264C44.2861 0.944405 44.1733 0.816166 44.0605 0.687923C44.3888 0.718811 44.7171 0.749695 45.0455 0.780579C44.2852 1.54994 45.2095 0.817284 45.2704 0.80072C45.3675 0.77272 45.2279 1.08769 45.3904 1.04847C45.4072 1.04202 45.3829 0.745407 45.6332 0.712097C46.1563 0.643509 46.0736 1.01643 46.2932 1.01222C46.3134 1.01029 46.2429 0.743084 46.6222 0.679867C47.8278 0.478627 46.6162 0.88464 46.57 0.921578C46.5092 0.970291 46.9226 2.08698 45.8985 1.69102C46.2424 1.81707 46.277 2.31122 46.3157 2.32348C46.35 2.33357 46.9457 2.26396 46.9786 2.24694C47.2714 2.07914 47.0137 1.74146 47.0708 1.68094C47.1175 1.63216 47.8353 2.07223 48.0035 1.05653C48.3469 1.99339 47.8059 1.90756 47.23 2.05156C47.146 2.24381 47.7784 2.43075 47.8117 2.43024C48.6274 2.42853 48.1758 1.65791 48.3541 1.1653C48.4478 0.907559 48.7802 1.4333 48.4733 0.74231C49.2137 0.669369 48.7647 1.06978 48.8125 1.12904C48.8847 1.2161 49.1437 1.01806 49.1762 1.04445C49.2238 1.0835 49.0583 1.32274 49.246 1.40701C49.2772 1.41926 49.5796 1.00757 49.1896 0.810795C49.7106 0.86932 49.6677 0.518273 49.8444 1.22573C50.2032 -0.112693 50.1047 2.01685 50.246 2.09185C50.6217 2.28953 50.5127 1.2387 50.5325 1.18746C50.6693 0.859078 51.7093 1.22006 51.9669 1.06862C51.8652 1.82549 51.1424 1.07688 50.9807 1.22371C50.4418 1.71222 51.7403 1.60212 51.3489 2.55311C51.513 2.29193 51.6771 2.03075 51.8411 1.76957C52.142 2.38102 51.7152 2.64764 52.5248 2.4242C52.6572 1.89644 51.9524 2.50756 52.0938 2.09185C52.1771 1.84787 52.6466 1.79547 52.6559 1.66684C52.6651 1.51201 52.2408 1.69551 52.3077 1.45736C52.4537 0.943448 54.0013 1.43269 52.8232 1.71317C53.1518 1.70439 53.3211 2.72658 53.6061 2.40808C53.7903 2.20135 52.7537 0.78959 54.309 1.04847C54.3421 1.53116 53.6872 1.19101 53.6702 1.22774C53.6463 1.28121 53.7648 2.37043 53.7853 2.4242C53.8578 2.6012 55.446 2.01795 55.7816 2.56519C55.6488 1.93566 56.9818 2.45286 57.127 2.26104C57.1656 2.20809 57.0212 1.82247 57.0625 1.78166C57.3203 1.53873 58.0175 2.22709 58.3409 2.24493C58.7029 2.26514 58.657 1.93209 58.6772 1.93273C58.8365 1.9513 58.7093 2.17708 58.8066 2.17645C58.9537 2.17536 59.9645 2.22154 60.0152 2.17443C60.0301 2.15975 59.8651 1.7793 60.0854 1.70713C60.1236 1.69463 60.0994 2.1457 60.752 1.95085C61.5379 1.71651 60.2062 1.38992 60.5328 0.917551C61.0376 1.59013 61.0212 0.923627 61.1581 0.975961C61.2055 0.995023 61.5583 1.5617 61.9414 1.52585C61.6664 1.61783 61.3915 1.70982 61.1165 1.8018C61.3868 1.90116 61.9117 1.77818 62.1345 1.89043C62.2431 1.94507 62.1536 2.41059 62.3896 2.39801C62.4397 2.39281 62.6384 1.25866 62.0202 1.76756C61.9708 1.36258 62.2649 1.6263 62.4014 1.51175C62.4221 1.4939 62.5035 0.817346 62.6777 1.23781C62.7196 1.34126 62.264 3.31481 63.439 1.8864C63.4768 1.84036 63.3453 1.5932 63.3823 1.54196C63.4075 1.50726 63.7075 1.60724 63.7406 1.57218C63.7745 1.53455 63.6297 1.26472 63.67 1.21163C63.8769 0.938036 64.1485 2.00822 63.7219 1.92668C63.8644 2.05895 64.007 2.19122 64.1496 2.32349C63.997 1.51692 64.3736 2.09655 64.5708 2.07171C65.8353 1.91296 64.9886 1.38837 65.206 1.11696C65.5556 0.681173 65.2886 2.06145 65.8076 1.6467C65.8556 1.60793 65.2282 1.02202 66.4533 1.35262C66.2725 1.37545 66.0917 1.39828 65.9109 1.42111C66.0152 2.20124 66.5638 1.36759 66.606 1.35665C67.0871 1.24954 66.7619 1.53077 67.4762 1.12905C67.54 1.09298 67.679 1.28551 67.8154 1.18947C68.3809 0.793814 67.0692 0.949381 67.0334 0.633543C67.0164 0.478785 68.427 0.51776 68.4754 0.591242C68.6811 0.916987 67.836 0.734717 67.9971 1.13912C68.0558 1.28271 70.0664 0.987791 70.4698 1.14516C70.9352 1.32828 71.1448 2.38599 71.1478 1.19753C71.2791 2.36411 71.3951 1.56817 71.4547 1.5762C72.1745 1.6842 72.1758 1.69597 72.7931 1.58426C72.9294 1.55998 73.0445 1.91394 73.0927 1.85417C73.1207 1.81807 73.0683 1.43928 73.2058 1.32241C73.3967 1.16253 74.5442 1.55213 74.6295 1.76152C74.7148 1.97091 74.1449 1.85232 74.247 2.19659C74.6595 2.23139 75.0551 2.14621 75.4703 2.18249C75.6428 2.19859 75.5542 2.43955 75.6287 2.44434C75.6604 2.4473 76.256 2.23511 76.2307 2.14624C76.1716 1.93956 74.3325 2.07848 74.8168 1.65678C74.9102 1.57529 75.2404 2.13055 75.1879 1.45535C76.8309 1.60843 78.4739 1.76152 80.117 1.9146C79.1729 2.41962 78.1106 1.96796 77.1218 2.01531C76.9862 2.02116 76.5281 1.95603 76.5838 2.2973C77.4246 2.38565 78.47 2.20784 79.2773 2.43024C79.3032 2.4376 79.2083 2.74422 79.3051 2.79281C79.486 2.88349 80.0751 2.38898 80.1741 2.51685C80.191 2.54665 79.8558 2.95086 79.9578 3.20774C80.2194 3.86696 80.2859 2.4069 80.5109 2.4242C80.6848 2.4382 81.854 3.14416 82.1452 2.69814C82.4548 2.22273 81.2835 2.42214 81.3701 2.03344C82.1626 1.64282 82.965 2.05994 83.7138 2.01128C83.727 2.01004 83.6124 1.70544 83.7795 1.66282C84.0703 1.58865 84.1466 2.02072 84.2881 2.08984C84.4407 2.16342 84.9804 2.1015 85.0526 2.25903C85.0618 2.27969 84.9524 2.70825 84.9359 2.72029C84.7008 2.89692 84.6173 2.3407 84.5959 2.33356C84.5155 2.31247 84.4365 2.52552 84.3632 2.51283C84.2425 2.49167 84.176 2.29456 84.0167 2.27716C83.9067 2.26442 84.0128 2.64293 83.9069 2.62562C83.868 2.61774 83.4484 1.75344 83.4093 2.6357C83.3972 2.91387 86.8281 3.27109 87.171 3.04861C86.8769 2.94253 86.5827 2.83645 86.2885 2.73036C86.8859 2.98859 87.6035 2.28366 87.6543 3.32658C89.8695 3.41185 92.0846 3.49712 94.2998 3.58239C94.6953 3.67124 94.4784 4.34143 95.1292 4.14637C94.961 3.93286 94.7928 3.71936 94.6247 3.50585C94.9582 3.65563 96.4362 3.94824 96.6753 3.81C96.7063 3.79188 96.7493 3.18532 97.1186 3.13321C97.4463 3.0872 97.4989 3.54166 97.6741 3.62871C97.8212 3.70054 97.9864 3.58147 98.0301 3.60656C98.0636 3.62665 98.0768 3.90455 98.1574 3.95301C98.4119 4.10284 98.2056 3.32037 98.4582 4.21889C98.3967 4.25313 98.3352 4.28737 98.2738 4.32161C98.5808 4.45166 99.0004 4.85958 98.548 5.06084C98.4703 5.09558 98.5371 4.82672 98.4791 4.82719C96.2077 4.87715 98.0214 5.39979 98.8174 4.98228C99.0219 5.38066 100.168 5.13743 100.206 5.21593C100.259 5.32964 100.063 5.64802 100.32 5.92293C100.374 5.98113 101.905 5.75806 101.354 6.28751C101.24 6.39673 100.506 6.28198 100.328 6.29758C100.745 7.14193 101.722 5.93221 101.831 5.96322C102.274 6.0948 100.98 6.69497 101.978 6.79308C102.746 6.86837 102.025 6.30458 102.32 6.06393C102.486 5.92889 103.355 6.54999 103.331 5.74568C103.629 5.65979 103.455 6.08567 103.491 6.1163C103.527 6.14323 104.113 5.90245 104.304 6.07198C104.327 6.09307 104.254 6.51113 104.278 6.54533C104.324 6.6039 104.89 6.52033 104.912 6.4849C104.927 6.46029 104.792 6.09428 104.847 6.00552C104.912 5.90316 105.456 5.98929 105.486 5.88466C105.528 5.72647 104.857 5.83068 104.969 5.42139C105.278 5.52444 105.782 5.25135 105.987 4.92186C105.937 5.01607 105.636 5.02959 105.532 4.99638C105.581 4.39693 106.226 4.4051 106.005 4.87956C106.145 4.62475 106.05 4.48957 106.129 4.2491C106.149 4.18819 106.348 4.17564 106.387 4.07185C106.392 4.05117 106.186 3.825 106.227 3.70324C106.302 3.48323 106.905 3.53272 106.954 3.59045C107.093 3.75402 106.602 3.95194 106.56 4.20479C106.555 4.24362 106.973 4.73911 106.979 4.78287C107.004 5.25239 106.538 4.91403 106.592 5.33679C106.707 5.42609 106.822 5.51538 106.937 5.60468C106.493 6.03279 105.671 5.81265 105.46 6.29959C106.118 6.15469 106.807 6.17183 106.805 7.26844C106.805 7.73028 106.521 8.00102 106.532 8.11845C106.574 8.53862 106.968 8.08216 106.983 8.10435C106.995 8.12996 107 8.15489 107 8.17915C107 8.17916 107 8.17917 107 8.17918C107 8.42519 106.438 8.60234 106.41 8.71466C106.363 8.9142 106.613 9.7355 106.612 9.91716C106.604 9.95366 106.203 10.148 106.338 10.465C106.475 10.7852 106.825 10.7923 106.838 10.8256C106.905 11.0171 106.292 11.1918 106.274 11.305C106.264 11.3622 106.593 11.7136 106.603 11.8146C106.611 11.9159 106.361 12.1371 106.262 12.4571C106.189 12.6948 106.403 12.8771 106.365 12.9143C106.338 12.939 105.759 12.935 105.731 12.9768C105.688 13.0386 105.824 13.3227 105.804 13.3937C105.776 13.4959 105.589 13.3934 105.614 13.4985C105.632 13.5768 106.357 14.5562 106.352 14.8178C106.344 15.264 105.576 14.2374 106.29 15.9981C106.295 16.0097 106.469 15.8846 106.474 15.8954C106.581 16.2194 106.024 16.7177 106.705 16.6306C105.438 17.1933 106.548 17.3014 106.36 18.0527C106.288 18.3414 105.796 18.4605 105.794 18.5039C105.842 18.8702 105.998 18.5861 106.051 18.7657C106.081 18.8661 105.641 19.2534 105.74 19.5049C105.791 19.6345 106.258 19.5884 106.277 19.6137C106.462 19.8522 106.235 20.109 106.276 20.2784C106.303 20.392 106.585 20.401 106.592 20.4214C106.604 20.4639 106.221 20.9228 106.142 21.0841C106.081 21.2082 106.308 21.4026 106.266 21.4567C106.012 21.7803 105.47 20.9551 105.992 22.1114C106.024 22.1823 106.221 22.1536 106.227 22.1677C106.349 22.4955 105.986 22.5238 105.92 22.7922C105.809 23.2545 106.331 22.9967 105.897 23.3219C106.223 23.6243 106.404 23.6116 106.786 23.5274C105.73 23.7625 105.357 24.9594 106.529 24.9293C106.156 24.9106 106.198 25.5861 106.087 25.598C106.017 25.6046 105.477 24.9329 105.725 26.4399C105.756 26.6282 106.084 26.389 105.981 26.7743C105.193 26.676 105.965 27.0195 105.965 27.0704C105.955 27.9581 104.029 27.231 103.698 27.3323C103.313 27.4497 102.972 28.1491 102.889 28.15C102.614 28.1503 102.842 27.7952 102.78 27.6646C102.718 27.5352 101.937 28.2156 101.898 28.1782C101.747 28.0281 101.9 27.6073 101.884 27.586C101.697 27.3282 100.648 27.6577 100.354 27.5599C100.363 27.8329 100.953 27.8545 100.585 28.293C100.156 28.8043 100.132 27.6007 100.12 27.5478C98.1559 27.5592 96.1915 27.5706 94.2271 27.582C94.2516 28.2223 95.5359 27.7394 95.5651 27.8237C95.7367 28.3229 93.5671 28.3137 93.301 28.0876C93.5031 28.2259 93.7053 28.3642 93.9075 28.5025C93.5623 29.2387 92.7982 28.2823 92.2989 28.6073C92.1376 28.7126 92.4474 28.9968 92.4409 29.0162C92.2596 29.3021 91.9687 29.0818 92.1862 28.6979C91.7436 29.0657 91.8083 28.6599 91.4687 28.6294C91.4512 28.6281 91.597 28.9252 91.3283 29.0484C91.2024 29.1058 90.5308 29.1068 90.4409 29.3666C90.4039 29.476 90.7446 30.628 90.7866 29.6365C91.517 30.1199 91.02 29.1847 91.3038 29.2075C91.3473 29.2127 91.2472 29.7661 91.9618 29.5056C91.8256 30.5036 91.0028 29.7573 90.8617 29.8782C90.5709 30.1267 91.7696 30.6421 91.9895 29.8641C91.8867 30.643 92.0745 29.9691 92.3418 30.0011C92.6342 30.0358 92.5068 30.2677 92.665 30.269C93.0979 30.2748 92.9184 29.7251 93.2753 30.2207C92.9274 28.6864 93.8861 30.0182 94.1655 30.4201C93.7109 30.498 93.2563 30.5758 92.8018 30.6537C92.8278 30.7343 92.8538 30.8149 92.8797 30.8954C92.76 30.884 92.6403 30.8726 92.5205 30.8612C92.5397 30.784 92.5589 30.7068 92.5781 30.6296C91.9607 31.1316 91.8101 30.5673 91.7597 30.5611C91.1116 30.4956 90.3631 30.5005 89.7078 30.4986C89.6095 30.4984 89.677 31.0005 88.9604 30.6074C88.7319 30.4822 88.9477 30.0915 88.6886 30.1502C88.3645 31.2117 88.3707 30.365 88.2743 30.3637C87.9978 30.3638 87.8288 30.6268 87.8033 30.6296C87.4617 30.6706 86.9614 30.6267 86.5861 30.6658C86.5791 30.6698 86.7743 30.996 86.5306 30.8995C86.445 30.865 85.6772 29.4728 85.0061 29.9266C85.1806 30.0206 85.3552 30.1146 85.5297 30.2086C85.3245 30.0772 83.8862 30.4281 84.2379 30.8008C84.4535 31.0285 84.9798 30.1312 85.0375 30.9941C84.5589 30.7359 81.9155 31.1221 81.7097 30.9216C81.6812 30.893 81.8563 30.613 81.817 30.5772C81.7866 30.5499 81.1811 30.6162 81.1007 30.5087C81.0528 30.4448 81.3204 30.2732 81.2986 30.1723C81.2796 30.1004 80.5234 29.9805 80.4802 30.3314C80.6659 30.1906 81.1878 30.3136 80.9141 30.6094C80.8789 30.6461 80.6965 30.4198 80.6537 30.4664C80.2568 30.8964 81.4428 30.7932 81.6264 30.7967C80.8814 31.2439 79.7291 30.7168 78.8659 31.0082C78.5171 30.7161 79.383 30.5614 78.9884 30.3194C78.1697 29.8177 78.7705 30.7233 78.7451 30.7605C78.5417 31.0552 77.8491 29.4758 77.8487 30.6779C77.5519 30.4969 77.648 30.3454 77.2291 30.5027C77.2842 30.5859 77.3393 30.6692 77.3944 30.7524C76.9294 31.4488 75.9452 29.692 76.0189 29.558C76.2173 29.1993 76.7298 29.7588 76.7736 29.7453C76.8384 29.7254 77.0175 28.5056 77.7267 29.5963C78.0171 28.7781 76.6027 29.0441 77.2463 28.4864C76.8117 28.5779 75.0236 28.0085 74.7662 28.3676C74.7355 28.4144 74.8786 29.2296 74.4368 28.8147C74.2271 28.6172 74.7328 28.6077 74.6368 28.422C74.3416 27.852 70.3257 28.2166 69.5628 28.2467C69.5133 28.2476 69.5315 27.9946 69.4828 27.9969C69.3334 28.004 68.7887 28.3813 68.5212 28.2648C69.0754 28.7331 67.999 28.7696 67.7252 28.718C67.3096 28.6396 67.3354 28.1944 67.1558 28.0997C66.4638 27.7347 65.3917 28.7918 64.8541 27.8036C64.8835 28.7843 63.9243 27.3227 63.488 27.3141C63.1462 27.3071 62.6503 27.9561 63.1116 28.3515C62.5216 28.3063 61.9005 28.4893 61.3471 28.5488C61.2556 28.5588 61.3816 28.2688 61.2255 28.2951C61.2113 28.2995 61.1917 28.5837 61.0577 28.6133C59.9512 28.861 60.4896 28.2571 60.2826 28.0795C60.1667 27.9801 60.0812 27.9307 60.0185 27.9144C60.6634 27.8588 61.4073 27.7472 61.6063 27.7391C61.4366 27.1115 60.1768 27.8597 59.8079 27.6908C59.7951 27.6846 59.8396 27.3387 59.8266 27.3363C59.8264 27.3363 59.8261 27.3363 59.8258 27.3363C59.6876 27.3098 58.807 27.4374 58.9883 27.8499C59.0369 27.9601 59.4423 27.9599 59.923 27.9224C59.7929 27.9998 59.89 28.3873 59.8671 28.4038C59.5886 28.5954 58.9065 28.2172 58.6646 28.1661C58.6093 28.1549 58.6132 28.4032 58.6042 28.4038C58.3841 28.3474 58.4744 27.6385 58.2487 28.3696C57.8501 27.4861 58.9955 28.2384 58.9148 27.6646C58.8528 27.2228 56.3088 27.4601 56.3164 28.1561C56.3076 28.0816 56.2726 27.9892 56.2008 27.8841C56.0417 27.6506 55.3336 27.7237 55.2114 27.8519C55.1908 27.8772 55.199 28.5527 55.1735 28.5589C55.1095 28.5744 54.244 28.0448 53.9208 28.4441C54.0953 28.5388 54.2699 28.6334 54.4445 28.7281C53.3903 28.734 53.5532 28.935 53.9045 29.137C53.922 29.1388 53.9391 29.1645 53.9559 29.1672C54.2281 29.3166 54.5771 29.4604 54.5824 29.5137C54.6024 29.717 52.8139 29.8302 53.1579 29.2035C53.2059 29.1178 54.0333 29.3969 53.6236 28.9497C53.5519 28.8713 53.0205 28.999 52.9926 28.9497C52.8058 28.622 53.9663 28.1866 53.8245 27.721C53.5428 28.1643 53.1813 27.9308 52.8583 28.0453C52.7113 28.097 52.6752 28.4357 52.6571 28.4421C52.3861 28.5305 52.5382 28.1754 52.4477 28.1843C52.3992 28.1904 51.8651 28.9462 51.966 27.9043C50.2064 28.6707 51.4793 28.6699 52.5587 28.6113C52.2176 28.9907 51.5489 28.8072 51.2489 28.8953C51.1412 28.9273 51.205 29.2749 51.0232 29.3445C50.6488 29.4875 48.8617 29.0881 48.3962 28.994C48.6821 28.8712 48.5985 28.4925 48.3778 28.5186C48.1571 28.545 48.3425 29.0504 48.2994 29.1048C48.2533 29.161 47.2178 28.9225 47.0455 28.9879C47.8251 28.8049 47.6492 28.4272 46.9875 28.3877C47.0832 28.2789 47.1788 28.1702 47.2745 28.0614C46.8867 28.2143 46.0713 27.6382 45.8471 27.8096C45.812 27.8372 45.9383 28.1547 45.9185 28.1702C45.7219 28.3051 45.0529 27.9813 45.0218 28.0896C44.9954 28.1798 45.2808 28.446 45.1748 28.577C45.1527 28.6046 44.8776 28.1754 44.6067 28.281C44.5061 28.3198 44.5667 28.6201 44.5414 28.6375C44.3303 28.7819 44.4549 28.2762 44.0691 28.3575C43.7865 28.4176 43.576 28.912 43.1854 28.7483C44.4678 29.3785 43.3898 29.1152 42.8536 29.3062C42.7676 29.3367 42.8413 29.8818 42.3278 29.6164C43.4205 28.6307 42.0163 29.0954 41.729 29.0846C41.7133 29.0813 41.7079 28.7218 41.567 28.716C41.5551 28.7163 41.5722 28.9593 41.4413 28.9779C40.1995 29.1535 40.9935 28.8791 40.7576 28.6395C40.6571 28.5374 40.0533 28.881 39.8906 28.8893C39.8532 28.8901 39.8704 28.6377 39.7257 28.6475C39.4697 28.6657 39.2404 28.9344 39.0714 28.9557C39.0517 28.957 39.0509 28.5586 38.7306 28.6878C38.6405 28.7239 38.5394 28.8654 38.6673 28.9799C39.0915 29.3566 39.8961 28.7047 40.3755 29.0806C40.8127 29.423 39.4342 29.4553 39.3625 29.4573C39.3361 29.4585 39.6054 29.2607 39.3318 29.2216C39.0983 29.189 38.6714 29.877 38.3232 29.7272C38.2967 29.7161 38.0186 29.1327 38.0314 29.0987C38.043 29.0739 38.4702 28.9473 38.4081 28.7785C38.4007 28.7592 38.1293 28.7632 38.0938 28.6375C38.0505 28.4845 37.9334 26.9832 37.8755 26.9455C37.7267 26.8525 37.8235 27.1949 37.7273 27.1711C37.521 27.1209 36.8053 26.6769 36.782 27.1973C36.9002 27.2282 37.0184 27.2591 37.1367 27.2899C36.4788 27.3435 36.7593 27.565 36.6661 27.6626C36.5657 27.7682 36.5939 27.3108 36.3722 27.2678C36.3239 27.2583 35.3961 27.3538 35.413 27.5458C35.9261 27.2403 35.7358 27.8056 35.7595 27.8157C35.8494 27.8525 35.9642 27.5354 36.0848 27.5417C36.9331 27.5914 36.0776 28.0918 36.2779 28.2205C36.3468 28.2638 36.4842 27.9932 36.5134 28.007C36.6084 28.0518 36.61 28.4063 36.6734 28.3776C36.8214 28.3111 36.6486 27.8095 36.6603 27.7834C36.7925 27.4696 37.3106 27.8601 36.9881 28.4058C37.1817 28.6025 37.2044 27.9392 37.3579 28.2044C37.6631 28.7295 37.2059 28.5946 37.082 28.6818C36.6376 28.9963 36.5057 28.7417 35.8767 28.8288C35.6501 28.8596 35.3817 29.1818 35.2766 29.1994C35.2104 29.2106 34.5852 28.0896 34.5668 29.844C34.3238 29.6742 33.9425 28.5181 33.6921 28.571C33.4673 28.6192 33.5388 29.2399 33.5178 29.2639C33.4857 29.3016 33.2138 29.2527 33.1219 29.3404C33.0142 29.4441 33.0679 29.681 32.897 29.7775C32.4716 30.0172 32.4827 29.3836 32.439 29.3425C31.9314 28.8666 32.1537 29.7677 32.041 29.84C31.9363 29.9064 30.467 29.5596 30.1577 29.7876C30.2836 29.6607 30.4094 29.5338 30.5353 29.4069C30.3101 29.0117 30.0713 29.6563 30.0671 28.9477C30.0214 30.0917 29.5565 29.327 29.4169 29.3566C29.3619 29.3687 29.3662 29.5637 29.2973 29.5721C29.0282 29.6063 28.4216 29.4511 28.2756 29.5499C27.6445 29.9755 29.2584 30.6835 29.3855 30.7262C29.1311 30.7136 27.6922 30.9698 28.3536 31.5198C28.4559 31.6047 28.637 31.0927 28.6944 31.0727C29.0831 30.9409 28.7774 31.3997 28.8079 31.4433C28.8597 31.5137 29.1155 31.0702 29.183 31.123C29.2055 31.14 29.0605 31.5554 29.4312 31.5642C29.2489 31.9669 28.207 31.6388 28.0703 31.7334C28.0216 31.7671 28.3269 32.6277 27.4352 31.7918C27.4456 31.8717 27.4559 31.9516 27.4662 32.0315C26.9698 32.0644 26.4733 32.0973 25.9768 32.1302C26.0308 31.9461 26.3095 31.5763 25.9584 31.6548C25.7563 31.7002 25.9059 32.1102 25.8874 32.1221C25.706 32.235 22.4956 32.0985 21.8734 32.1443C21.6618 32.1591 21.0719 32.4886 21.0269 32.4947C20.7579 32.5277 19.8054 32.3132 19.6154 32.3598C19.4968 32.3896 19.6096 32.7324 19.5036 32.7163C19.4051 32.7009 19.5071 32.3696 19.4779 32.3558C19.2355 32.2357 17.3942 32.6702 16.957 32.3578C17.2242 32.4516 18.5577 31.7897 18.5309 31.5561C18.5251 31.5241 18.201 31.2721 18.1342 31.395C18.0237 31.1081 17.6445 31.9814 17.4382 31.8099C17.4149 31.7904 17.5068 31.3006 17.1386 31.2117C17.0118 31.1813 16.6797 31.5631 16.3455 31.1351C15.8617 31.3408 13.318 30.7055 13.1434 31.2318C13.1383 31.2596 13.4965 31.4408 13.2544 31.6568C12.9327 31.9439 13.2216 30.9768 12.8467 30.8934C12.7902 30.8807 11.7469 30.9786 11.7128 31.0384C11.3968 31.5812 12.3084 31.8012 12.2956 31.8643C12.2639 32.0232 11.5064 32.1193 11.4756 32.0818C11.4463 32.0428 12.064 31.3237 11.3217 31.5964C11.4068 31.6823 11.4918 31.7683 11.5768 31.8542C11.2277 32.0216 11.1945 31.5241 11.1099 31.4937C10.847 31.3974 10.5626 32.1532 10.1413 31.2197C10.0299 30.972 10.2148 30.6969 10.2009 30.6598C10.0671 30.3263 9.89637 31.2183 9.69517 30.553C9.68002 30.5034 10.1483 30.1048 9.32985 30.1038C9.38618 30.1676 9.44251 30.2314 9.49883 30.2952C9.38343 30.4376 8.55478 30.5222 8.4433 30.4886C8.11763 30.3902 8.40164 29.9323 8.07431 29.987C8.28425 30.6145 7.28887 30.6964 7.34613 30.1562C7.20711 30.8347 6.36154 30.3113 5.96405 30.2952C5.71325 30.2855 5.20167 30.5816 5.12199 30.547C5.02491 30.5045 5.05441 30.0417 4.87913 29.9387C4.82914 29.9093 4.30733 30.2486 3.8493 29.7695C3.76054 29.6772 3.57411 28.8921 3.7391 28.6959C4.0215 28.3601 4.55573 28.9926 4.54891 28.5287C4.5409 28.0325 3.82134 28.3276 3.62767 28.2628C2.73351 27.9633 3.24984 27.4357 3.22684 27.2758C3.16721 26.8878 2.67864 26.8998 2.65825 26.8649C2.57376 26.71 2.91997 26.4028 2.9252 26.166C2.93151 25.8576 2.46058 25.3011 2.56764 25.1972C2.72089 25.0495 3.15368 25.5134 3.18112 25.4912C3.53831 25.1921 3.04871 24.4796 2.91377 24.1296C2.87286 24.0219 3.03585 23.845 3.00194 23.8134C2.48422 23.3342 2.8928 24.8146 2.54845 24.7157C2.24123 24.6276 2.63652 24.1594 2.62478 24.1336C2.60961 24.1053 2.24228 24.0797 2.18477 23.9141C2.15643 23.8311 3.1112 22.9205 3.07133 22.5122C2.76669 22.6021 2.46206 22.6921 2.15742 22.7821C2.13354 22.2497 2.57171 22.6416 2.61703 22.5867C2.70826 22.4766 2.45386 22.2071 2.46478 22.0388C2.47064 21.9318 2.76922 21.5497 2.49947 21.3923C2.40677 21.3379 2.21221 21.7111 1.87456 21.3298C3.04963 20.8428 2.23533 20.5435 2.20069 20.3549C2.16676 20.1664 2.72775 19.7225 2.04681 19.801C2.01729 18.7649 2.06149 19.4735 2.25498 19.2914C2.49201 19.0676 1.94419 18.7264 2.8105 18.9852C2.76122 18.5002 2.0649 18.5345 2.02803 18.4958C1.9962 18.4607 2.15098 18.2221 2.09579 18.1413C1.44301 17.204 1.89137 17.632 1.70231 17.0335C1.6855 16.98 1.06852 16.7581 1.53823 16.6709C2.39396 16.5124 2.7516 17.1998 2.8954 15.7302C2.26244 15.0919 1.49553 16.0405 1.30312 16.0565C1.00861 16.0797 1.31369 15.78 1.2774 15.696C1.2648 15.6689 1.01101 15.6936 1.0076 15.6698C0.826633 14.549 2.13741 15.6512 2.55009 15.4563C2.43947 15.2885 2.32886 15.1206 2.21824 14.9527C2.36831 14.946 2.51839 14.9393 2.66846 14.9326C1.95352 14.5952 2.64325 14.8049 2.82152 13.8973C2.86155 13.6934 2.39186 14.0431 2.92765 13.4763C2.53247 13.3455 2.65852 13.1601 2.30069 13.4159C2.30993 13.0521 3.11501 12.6418 3.43256 12.4551C2.31076 12.0463 2.95048 13.3806 1.98069 12.6746C1.80085 13.1251 2.26374 13.0374 2.226 13.1117C2.09057 13.3791 1.7731 12.9546 1.39006 13.8912C1.32769 14.045 1.59159 14.5184 1.20107 14.4955C1.15788 14.4923 0.909045 14.0877 0.912495 14.0584C0.945484 13.7416 1.19172 13.8603 1.20189 13.7281C1.21143 13.6029 0.936709 13.6782 0.935761 13.6435C0.92732 13.2466 1.16498 13.4918 1.13046 13.3675C1.05592 13.0973 0.0677466 12.2432 1.3574 12.4934C0.286206 12.9421 1.22026 12.9316 1.63741 12.7592C1.74379 12.716 1.77073 12.479 1.92232 12.3967C2.1173 12.2901 2.34552 12.4039 2.44641 12.3604C2.55492 12.3125 1.93836 11.7521 2.8301 11.9193C2.37626 11.3619 1.57463 11.9562 1.12883 11.5648C0.229406 10.7739 1.75594 10.6041 1.91497 10.5275C1.95734 10.5067 1.8153 10.1865 1.84354 10.1669C1.88972 10.1368 2.7561 10.2848 2.84152 10.0199C2.92672 9.75517 2.52419 10.0321 2.49743 9.75601C2.4793 9.57016 3.52445 9.2405 2.95867 9.11347C2.56871 9.02639 1.84992 9.77339 1.72884 8.97046C2.30233 8.90399 2.87581 8.83752 3.4493 8.77105C3.13541 8.46556 2.82152 8.16007 2.50764 7.85457C3.15131 7.75769 3.70777 8.10259 4.31911 7.66524C2.85008 6.68632 4.79609 6.88401 4.81749 6.76487C4.82465 6.69362 4.24643 5.89906 4.1534 5.75373C4.66576 5.44806 6.22267 5.2987 5.31179 4.31758C5.47712 4.53911 5.8775 3.99226 5.87221 3.95099C5.82137 3.51754 4.94814 3.79861 5.09056 3.40714C5.25561 2.95285 5.48688 3.56916 5.74078 3.51994C7.04369 3.26335 6.68624 1.00061 7.99268 1.35866C7.96669 1.27809 7.9407 1.19752 7.91472 1.11695C9.33475 1.24519 10.7548 1.37343 12.1748 1.50167C12.7304 0.810678 14.2091 0.389905 14.9353 0.466356C15.0815 0.481244 15.7995 0.843896 15.8537 0.907476C15.954 1.02932 15.4023 1.07582 15.6516 1.30428C15.7043 1.35117 16.9198 1.50355 16.8329 1.11695C16.6967 1.07213 16.2704 1.26646 16.2006 1.17537C15.7106 0.525175 19.4579 1.04461 19.6436 0.782591C19.5606 0.657038 19.4776 0.531484 19.3946 0.405931C19.6311 0.467699 19.8675 0.52947 20.104 0.591238ZM9.23801 31.6407C9.0961 32.0286 8.74041 31.7373 8.53024 31.8461C8.23987 31.9986 7.74627 33.4924 7.9588 31.9952C8.3852 31.877 8.81161 31.7589 9.23801 31.6407ZM15.47 32.2188C15.1841 32.0104 15.4058 31.1743 15.6402 31.5219C15.6662 31.5614 15.8569 32.4992 15.47 32.2188ZM12.4724 31.822C12.4844 31.8109 12.7315 31.833 12.7401 31.8461C12.9617 32.1819 12.2168 32.1133 12.4724 31.822ZM26.9532 31.3929C26.6381 31.429 26.8663 32.1892 27.0621 31.8764C27.0745 31.8565 26.9739 31.3912 26.9532 31.3929ZM26.7291 31.3728C26.4844 30.6921 25.9916 32.0717 26.3833 31.9328C26.4214 31.9187 26.7404 31.406 26.7291 31.3728ZM14.4508 31.8864C14.483 31.6255 14.7779 31.7515 14.9039 31.8139C14.9004 32.0521 14.5743 31.8573 14.4508 31.8864ZM21.9289 31.8139C21.9415 31.6088 20.9163 31.6202 20.8465 31.8905C21.0083 31.7758 21.9172 31.9982 21.9289 31.8139ZM24.558 31.5259C24.532 31.4904 24.1779 31.5443 24.1882 31.7253C24.3611 31.9627 24.675 31.6864 24.558 31.5259ZM29.7834 31.538C29.8027 31.4925 29.5374 30.3409 30.1659 31.0989C30.2582 31.2099 29.9286 31.5108 29.9614 31.5521C30.0301 31.6327 30.0843 31.6702 30.1279 31.677C29.8352 31.7724 29.5312 31.8173 29.5018 31.7475C29.3637 31.4175 29.7749 31.5569 29.7834 31.538ZM32.5268 30.6799C32.5871 30.4921 32.9722 30.5925 33.0598 30.6698C33.0749 30.6844 33.0093 31.1781 33.1827 31.1412C33.3219 31.1107 33.114 30.605 33.3852 30.6859C33.6592 30.7672 33.2931 31.1275 33.317 31.1533C33.3491 31.187 33.773 30.9599 33.7599 31.254C33.75 31.4718 33.2958 31.3245 33.1835 31.3708C33.0397 31.4303 33.2141 31.7932 32.9737 31.7152C32.8227 31.6665 32.9064 31.0284 32.8745 30.9961C32.8478 30.9702 32.3199 31.3374 32.5276 30.6819C32.5273 30.6812 32.527 30.6806 32.5268 30.6799ZM30.2071 31.6488C30.1851 31.6703 30.1592 31.6818 30.1279 31.677C30.1545 31.6683 30.1809 31.6582 30.2071 31.6488ZM10.0642 31.3607C10.2128 31.5575 9.77162 31.8099 9.60455 31.5521C9.60166 31.3441 10.0405 31.3301 10.0642 31.3607ZM30.4786 31.1291C30.9133 31.2889 30.5935 31.5088 30.2071 31.6488C30.3298 31.5286 30.3326 31.0757 30.4786 31.1291ZM18.1342 31.395C18.1525 31.4426 18.1641 31.5168 18.1656 31.6387C18.1174 31.5053 18.1131 31.4337 18.1342 31.395ZM19.1485 31.6125C19.4962 31.2411 18.7897 31.2561 18.7942 31.5219C18.7963 31.6222 19.1345 31.6273 19.1485 31.6125ZM27.3572 31.4292C27.3254 31.3929 27.8196 30.2714 27.1021 31.113C27.4851 31.2451 27.0811 31.3673 27.087 31.4655C27.1027 31.7477 27.7459 31.4764 27.8883 31.5984C27.9998 31.0934 27.4623 31.5489 27.3581 31.4292C27.3578 31.4292 27.3575 31.4292 27.3572 31.4292ZM37.471 30.9518C37.3838 31.2478 37.1073 31.1525 36.9208 31.1351C37.0079 30.8392 37.2844 30.9344 37.471 30.9518ZM86.2939 30.9941C85.0154 31.2677 84.8498 30.0626 86.0196 30.5389C86.0425 30.5489 86.3714 30.872 86.2939 30.9941ZM75.3221 30.6819C75.2017 30.1567 75.6003 30.0722 75.8622 30.2891C75.9214 30.3379 76.1405 30.87 75.8903 30.974C75.8983 30.3373 75.5115 30.0941 75.3221 30.6819ZM30.7243 30.7927C30.8509 30.4424 31.2406 30.6918 31.4459 30.7444C31.3206 31.0328 30.9058 30.9023 30.7243 30.7927ZM82.0929 30.3657C81.9582 30.3259 81.8672 30.7829 81.8905 30.8209C81.9946 30.9953 82.2465 30.6258 82.0929 30.3657ZM29.4663 30.7383C29.4485 30.529 29.9646 30.3275 30.0006 30.8451C29.8902 30.8076 29.4791 30.8697 29.4663 30.7383ZM37.1191 30.7947C37.039 30.6883 37.454 30.4977 37.5796 30.6034C37.5695 30.8262 37.1717 30.8639 37.1191 30.7947ZM79.9235 30.5208C79.8028 30.4811 79.5013 30.469 79.468 30.6537C79.4265 30.8846 79.8685 30.8059 79.9235 30.5208ZM102.375 30.122C102.391 30.205 101.924 30.8031 101.716 30.6517C101.322 30.3621 102.359 30.0634 102.375 30.122ZM83.3685 30.13C83.749 30.5646 83.3265 30.1437 83.3432 30.6014C83.5992 30.6178 84.2362 30.6404 83.7983 30.1905C83.713 30.1034 83.4878 30.1596 83.3685 30.13ZM83.0174 29.9769C82.9766 30.1252 82.7024 30.5925 82.9395 30.5591C83.0491 30.5429 83.2258 30.0236 83.0174 29.9769ZM99.4828 30.3254C99.1417 29.9203 100.705 30.1376 100.75 30.2086C100.774 30.2461 100.789 30.2814 100.798 30.3113C100.856 30.1829 101.151 30.1598 101.185 30.4845C101.097 30.4577 100.855 30.4863 100.827 30.4503C100.815 30.435 100.806 30.4206 100.8 30.406C100.695 30.6879 99.5481 30.4022 99.4828 30.3254ZM96.8921 29.9085C97.2823 29.3108 97.3515 30.3269 97.3178 30.3596C96.8929 30.7755 97.17 30.0261 97.157 29.991C97.1273 29.9326 96.8255 30.2804 96.8933 29.9085C96.8929 29.9085 96.8925 29.9085 96.8921 29.9085ZM98.9517 30.1582C98.9678 30.145 99.2954 30.1764 99.3089 30.1925C99.5774 30.534 98.6503 30.4465 98.9517 30.1582ZM34.5946 29.9689C34.8292 30.0699 34.5991 30.4437 34.4431 30.3093C34.4303 30.296 34.3876 29.8796 34.5946 29.9689ZM82.8301 30.0777C82.7757 30.007 81.3844 29.7406 81.468 30.3053C81.5861 30.2386 83.1676 30.5293 82.8301 30.0777ZM72.4327 29.9407C72.678 29.9451 72.4105 30.4776 72.2796 30.2791C72.2311 30.2053 72.3708 29.9399 72.4327 29.9407ZM28.7703 30.2549C28.5156 30.5475 28.5683 29.566 28.7891 29.9024C28.7978 29.9156 28.7803 30.2435 28.7703 30.2549ZM74.3927 30.2468C73.5466 30.5696 73.747 28.8813 74.847 29.4512C74.8126 29.5264 74.7782 29.6016 74.7438 29.6768C76.0135 29.9301 74.8306 29.7958 74.5197 29.8903C74.4015 29.9263 74.5006 30.2081 74.3935 30.2489C74.3933 30.2482 74.393 30.2475 74.3927 30.2468ZM71.1424 29.9085C70.3276 28.7102 71.8832 29.4905 72.3294 29.3344C71.8969 29.8292 71.3337 29.7543 72.0996 30.2609C70.9797 30.3589 71.4459 29.8817 71.4012 29.842C71.3483 29.7975 71.1772 29.9599 71.1424 29.9085ZM73.2919 29.9004C73.339 29.8654 73.6939 30.1094 73.8217 30.0696C73.6429 30.4789 72.9792 30.1381 73.2919 29.9004ZM94.1761 30.1864C94.2055 29.8657 94.2785 29.6295 94.5585 29.7493C94.472 29.9105 94.2931 30.0491 94.1761 30.1864ZM8.96862 29.9528C8.77573 29.9298 8.39164 29.8089 8.50942 30.1461C8.52231 30.1749 8.96803 30.142 8.96862 29.9528ZM78.7892 29.8178C78.7481 29.7784 77.6872 29.7519 78.0536 30.1059C78.1642 30.2126 79.1295 30.1673 78.7892 29.8178ZM84.2832 29.8581C84.1944 29.8548 83.8337 29.9152 83.826 29.991C83.8016 30.2533 84.2444 30.1091 84.2832 29.8581ZM7.99553 29.6244C7.97013 29.5912 7.38095 29.6501 7.44572 29.8057C7.56866 30.1 8.0826 29.7391 7.99553 29.6244ZM35.4481 29.2176C35.4973 29.2057 35.5625 29.5541 35.5795 29.558C35.6195 29.563 36.5211 29.4289 36.1767 29.8762C36.1192 29.9512 34.8221 29.7794 34.6534 29.7352C34.5881 29.257 35.1422 29.7119 35.277 29.6627C35.3008 29.6534 35.316 29.2532 35.4477 29.2196C35.4478 29.2189 35.4479 29.2182 35.4481 29.2176ZM95.6353 29.848C95.6751 29.544 96.735 29.3426 96.7227 29.7111C96.3602 29.7567 95.9978 29.8024 95.6353 29.848ZM95.0969 29.7977C94.8708 29.5826 95.4004 29.5114 95.5565 29.6063C95.5582 29.8109 95.1299 29.8291 95.0969 29.7977ZM82.2729 28.7221C82.1664 28.7964 82.494 29.2401 82.4207 29.3263C82.3737 29.3801 82.1358 29.2138 82.0599 29.3525C82.0384 29.3966 82.2811 29.8137 82.3513 29.7957C82.451 29.7716 82.3543 29.4434 82.4631 29.4412C82.8245 29.4341 83.1448 29.6682 83.4836 29.6627C83.5142 29.6616 83.2769 29.4298 83.5379 29.4331C83.5782 29.4332 83.8204 29.7784 84.1326 29.7272C84.8219 28.6581 85.328 29.7078 86.2028 29.3223C86.1698 29.2216 85.5156 28.9516 85.4771 28.9416C84.7459 28.7658 83.4359 28.7465 82.6701 28.7442C82.4736 28.7433 82.569 28.9696 82.4844 28.9779C82.4175 28.984 82.497 28.565 82.2729 28.7221ZM9.07107 29.7211C8.97913 29.3026 8.65663 29.5675 8.45065 29.5459C8.52315 29.9234 8.86978 29.6284 9.07107 29.7211ZM90.3384 29.4734C90.2352 29.4895 89.9151 29.3635 89.8886 29.4895C89.8546 29.654 90.3166 29.7578 90.3384 29.4734ZM40.5315 29.3364C40.5414 29.325 40.7898 29.3474 40.7992 29.3606C41.0212 29.6965 40.2761 29.6276 40.5315 29.3364ZM46.4732 29.417C46.6616 29.3653 46.8516 29.2345 46.9149 29.5741C46.7949 29.5221 46.4512 29.6535 46.4732 29.417ZM54.6706 29.4069C54.6317 28.9623 55.1986 29.2502 55.3057 29.2901C55.2661 29.4877 54.6991 29.7273 54.6706 29.4069ZM94.1353 28.7906C94.4819 28.8169 94.4087 28.1433 94.6288 28.4481C94.6647 28.4997 94.7807 29.9022 94.3998 29.3767C94.3312 29.2822 94.5994 28.9489 94.1353 28.7906ZM75.0262 29.4653C75.1144 29.1712 75.3898 29.2585 75.576 29.282C75.5343 29.5006 75.1587 29.4443 75.0262 29.4653ZM6.93142 29.2881C6.76887 28.8728 6.0178 29.1808 6.20365 29.4552C6.23008 29.491 6.82606 29.2724 6.93142 29.2881ZM31.6055 29.4512C31.9146 29.1242 31.2745 29.0229 31.0724 29.3425C31.1639 29.3215 31.5847 29.4727 31.6055 29.4512ZM52.7016 29.1652C52.7164 29.1518 53.0441 29.1834 53.0587 29.1994C53.3273 29.5409 52.4001 29.4535 52.7016 29.1652ZM44.5193 28.8772C44.6374 28.608 45.4135 28.8252 45.5875 29.0947C45.4201 29.4882 44.3728 29.2133 44.5193 28.8772ZM92.7091 28.9819C92.9564 28.968 93.191 29.0509 93.4181 29.1672C93.3703 29.3938 92.7352 29.1512 92.7091 28.9819ZM53.9045 29.137C53.922 29.1388 53.9391 29.1645 53.9559 29.1672C53.9384 29.1576 53.9212 29.1466 53.9045 29.137ZM87.1747 28.8228C86.9675 28.7333 87.0105 29.1485 87.0233 29.1612C87.1792 29.2956 87.4093 28.9238 87.1747 28.8228ZM8.83433 29.1048C8.7625 28.7301 8.41398 29.0207 8.2135 28.9315C8.27166 29.2275 8.67283 29.1441 8.83433 29.1048ZM70.2698 29.141C70.0094 28.7348 71.0686 28.2629 71.2918 28.5247C71.3083 28.7757 70.3079 29.1966 70.2698 29.141ZM30.6459 28.8893C30.6251 28.5957 30.1804 28.95 30.2749 29.0887C30.3347 29.1769 30.6583 29.0716 30.6459 28.8893ZM71.8245 28.6959C71.924 28.6063 72.156 28.896 72.0743 29.0725C71.9695 29.2989 71.7988 28.7215 71.8245 28.6959ZM80.7533 28.4602C80.7098 28.4154 80.1246 28.7167 80.3664 29.0162C80.5341 29.2243 80.5608 28.7999 80.6002 28.7986C80.6443 28.8 81.5837 29.3193 80.7533 28.4602ZM64.3374 28.8852C64.5581 28.7723 64.8251 28.9034 65.0562 28.8953C64.962 29.0769 64.4313 29.1264 64.3374 28.8852ZM32.3611 28.8107C32.3074 28.692 30.8468 28.6205 31.6765 28.9859C31.7249 29.0066 32.5239 29.1703 32.3611 28.8107ZM94.1353 28.7906C94.0916 28.7872 94.0411 28.7732 93.9826 28.7442C94.0407 28.7556 94.0913 28.7755 94.1353 28.7906ZM90.1989 28.7462C90.2786 28.5325 89.8766 28.4754 89.758 28.5891C89.7215 28.8502 90.1879 28.7761 90.1989 28.7462ZM65.0737 28.5972C65.2069 28.4749 65.4485 28.6054 65.6133 28.5911C65.5854 28.7898 65.1313 28.799 65.0737 28.5972ZM55.7245 28.3736C55.9889 28.4917 56.3142 28.4374 56.3192 28.1943C56.3247 28.2323 56.3375 28.2726 56.3588 28.3132C56.3803 28.3533 56.6635 28.2403 56.7866 28.3233C57.5232 28.816 53.9418 28.6127 56.0176 27.9264C55.9199 28.0755 55.8222 28.2246 55.7245 28.3736ZM43.4691 28.3051C43.319 28.0093 42.8988 28.38 43.0079 28.4965C43.0838 28.5763 43.6193 28.603 43.4691 28.3051ZM49.2431 28.1299C49.1983 28.0771 48.7879 28.2843 48.7774 28.4401C49.0133 28.6042 49.4474 28.3752 49.2431 28.1299ZM42.3156 27.9587C42.2214 27.914 42.1013 28.3911 42.1123 28.4119C42.208 28.586 42.4738 28.2243 42.3156 27.9587ZM93.4173 27.5055C93.2772 27.3689 92.8304 27.7142 92.7332 28.0292C92.7151 27.9683 92.6663 27.8888 92.5769 27.7935C92.5771 27.7935 92.5774 27.7935 92.5777 27.7935C92.4569 27.6663 88.8466 27.5272 91.2683 28.1339C91.3441 28.1534 91.2405 27.8706 91.5491 27.9204C91.5695 27.924 91.5796 28.1549 91.6426 28.1661C91.7875 28.1905 92.5593 28.3358 92.7144 28.15C92.7157 28.1928 92.7258 28.2335 92.7471 28.2709C92.9373 28.6038 93.526 27.6108 93.4173 27.5055ZM50.0566 28.0876C49.9741 28.002 49.7127 28.0833 49.6856 28.287C49.8152 28.3868 50.2482 28.2872 50.0566 28.0876ZM32.3157 27.9748C32.1475 27.8072 31.7212 28.1205 31.85 28.287C31.929 28.3894 32.5098 28.1672 32.3157 27.9748ZM47.4386 28.1964C48.4032 28.4372 47.6688 28.1769 47.8165 27.8781C47.6906 27.9842 47.5646 28.0903 47.4386 28.1964ZM97.8819 28.2769C97.7281 28.2082 97.9089 27.6187 98.0782 27.9385C98.1314 28.0401 97.968 28.3143 97.8819 28.2769ZM104.828 28.0936C104.697 27.5709 105.338 27.878 105.088 28.2366C105.076 28.2487 104.837 28.1135 104.828 28.0936ZM99.9742 27.8801C99.8698 28.2361 99.8018 28.2783 99.5077 28.1903C99.9431 28.09 99.5393 27.7752 99.9742 27.8801ZM56.3164 28.1561C56.318 28.1705 56.3195 28.1811 56.3192 28.1943C56.3173 28.1813 56.3165 28.1689 56.3164 28.1561ZM41.4086 28.0513C41.2879 27.7498 40.9495 27.772 41.0503 28.0755C41.06 28.1036 41.3592 28.2741 41.4086 28.0513ZM92.7332 28.0292C92.7492 28.0832 92.7411 28.1181 92.7144 28.15C92.7132 28.1097 92.7201 28.0717 92.7332 28.0292ZM43.2258 27.8056C43.2137 28.0305 43.7288 28.118 43.7495 28.0916C44.0451 27.7015 43.4385 27.792 43.2258 27.8056ZM28.9099 27.6586C28.8834 27.682 29.0547 28.2627 29.1597 28.0352C29.2411 27.8587 29.0094 27.5692 28.9099 27.6586ZM100.973 27.7351C101.136 27.7355 101.366 27.7352 101.408 28.011C101.299 27.9687 100.97 27.9375 100.973 27.7351ZM104.577 27.715C104.384 28.0392 103.944 28.0383 103.662 27.9849C103.657 27.558 104.396 27.8153 104.577 27.715ZM93.8598 27.6646C93.8464 27.6472 93.4373 27.5199 93.4932 27.8056C93.5748 28.2246 93.9751 27.82 93.8598 27.6646ZM29.7042 27.9667C29.8872 27.77 29.4662 27.1653 29.2732 27.6324C29.1741 27.8716 29.6734 27.9997 29.7042 27.9667ZM40.3519 27.6565C40.1105 27.8219 40.7087 28.1164 40.7923 27.8177C40.6811 27.7937 40.4376 27.598 40.3519 27.6565ZM48.5647 27.3544C47.8041 26.4928 48.2184 28.0646 48.3533 27.9264C48.3723 27.9067 48.5833 27.3747 48.5647 27.3544ZM5.04403 27.5659C4.93635 27.6856 5.3378 28.1193 5.38975 27.8338C5.42185 27.6551 5.11289 27.4896 5.04403 27.5659ZM60.0185 27.9144C59.9864 27.9171 59.9545 27.92 59.923 27.9224C59.9466 27.9084 59.9777 27.9038 60.0185 27.9144ZM38.1608 26.5024C38.6962 27.7189 38.64 26.7813 38.6865 26.7864C38.7871 26.7995 39.0207 27.1284 39.2102 27.0744C38.9932 27.2114 38.7762 27.3484 38.5592 27.4853C38.7306 27.5732 40.2198 28.021 40.251 27.8237C40.2958 27.5428 39.8271 27.6309 39.8135 27.6062C39.7938 27.5709 39.7206 26.7899 39.6772 26.7602C39.6056 26.7127 38.3604 26.6965 38.1608 26.5024ZM46.9741 27.4894C47.0964 27.5822 47.1311 27.8916 47.188 27.8177C47.2073 27.7924 47.2104 27.4972 47.2765 27.4209C47.1757 27.4437 47.0749 27.4665 46.9741 27.4894ZM37.202 27.5961C37.0504 27.2355 37.73 27.3724 37.7518 27.4128C37.868 27.6573 37.3259 27.8907 37.202 27.5961ZM42.9687 27.5437C42.9439 27.5227 42.422 27.4101 42.4262 27.6102C42.5643 27.7628 43.262 27.8072 42.9687 27.5437ZM47.3582 27.4007C47.5415 27.4352 47.8881 27.7324 47.8484 27.2879C47.8481 27.2879 47.8478 27.2879 47.8476 27.2879C47.6844 27.3255 47.5213 27.3631 47.3582 27.4007ZM30.3304 27.0281C29.9906 26.3203 30.1516 27.2147 30.4524 27.443C30.5436 27.1252 30.3861 27.1433 30.3304 27.0281ZM29.243 26.5004C29.1485 26.373 28.1744 26.5126 28.323 26.8871C28.3758 27.0206 28.936 26.684 28.9618 26.7098C29.0009 26.7482 28.8222 27.1626 29.121 27.0805C29.1035 26.9401 29.2754 26.5429 29.243 26.5004ZM30.0492 26.5749C29.7115 26.0366 29.6356 27.0294 29.8896 27.0321C29.9888 27.0339 30.0973 26.6526 30.0492 26.5749ZM31.4284 26.6595C31.3069 26.5653 30.9833 26.428 30.7602 26.7582C31.0587 26.7864 31.3572 26.8146 31.6557 26.8428C31.6902 26.6557 31.5347 26.7422 31.4276 26.6595C31.4278 26.6595 31.4281 26.6595 31.4284 26.6595ZM106.606 25.171C106.338 24.8894 106.956 24.7815 106.982 24.8507C107.059 25.0803 106.726 25.2967 106.606 25.171ZM2.94847 18.5461C2.87392 18.4339 2.82519 18.0646 2.66111 18.2581C2.82615 18.5307 2.99119 18.8033 3.15623 19.0759C3.28448 18.4513 3.02994 18.6699 2.94847 18.5461ZM2.31825 16.264C2.34156 16.2489 2.21421 15.2884 2.51539 15.9296C2.71889 16.3626 1.61227 16.7845 1.41251 16.3587C1.63323 16.1608 2.11756 16.3873 2.31825 16.264ZM0.379829 12.1066C0.367069 12.03 0.787503 11.9177 0.836167 11.9717C1.09169 12.2563 0.448862 12.517 0.379829 12.1066ZM1.72109 12.2899C1.52391 12.1034 1.96072 11.9832 2.09089 12.0905C2.10352 12.2693 1.75155 12.3171 1.72109 12.2899ZM103.889 11.2607C103.676 10.6079 103.485 12.0131 103.813 11.73C103.829 11.7167 103.898 11.2926 103.889 11.2607ZM0.79086 11.1378C0.988034 11.3243 0.551231 11.4445 0.421054 11.3372C0.408948 11.1586 0.760837 11.1105 0.79086 11.1378ZM103.739 9.70567C103.455 9.23596 103.555 10.8124 103.591 10.8759C103.736 11.1268 104.237 10.5081 104.339 10.3543C103.59 10.5908 103.872 9.92701 103.739 9.70567ZM102.432 10.6524C102.169 10.8205 102.841 11.1422 102.969 10.7027C102.838 10.7237 102.507 10.6037 102.432 10.6524ZM100.836 10.1468C100.695 10.0903 100.275 9.95514 100.204 10.2032C100.358 10.1583 100.777 10.402 100.836 10.1468ZM100.516 9.40353C100.295 9.06649 100.242 10.0485 100.497 9.75602C100.507 9.7447 100.524 9.42227 100.516 9.40353ZM99.2742 9.04903C99.1292 8.65849 98.9638 9.60953 99.1987 9.63517C99.2685 9.64103 99.2895 9.0938 99.2742 9.04903ZM103.384 8.00968C103.177 7.84198 102.909 8.52304 103.352 8.59784C103.197 8.70191 103.041 8.80597 102.885 8.91004C103.466 9.29179 103.423 8.3473 103.59 8.38634C103.823 8.44184 103.804 9.22123 103.758 9.46597C103.949 8.98847 104.76 8.98083 105.229 8.8899C104.817 8.68951 104.148 8.34209 103.741 8.21513C103.625 8.17838 103.512 8.39212 103.413 8.36821C103.255 8.32874 103.396 8.02097 103.385 8.00968C103.385 8.00968 103.384 8.00968 103.384 8.00968ZM97.6415 9.03493C97.2155 8.59253 97.4849 9.54768 97.7256 9.37735C97.7359 9.36423 97.6521 9.04573 97.6415 9.03493ZM0.225948 8.23527C0.795126 8.6345 0.381403 9.16364 1.5721 8.36015C1.07186 8.92897 1.54444 8.76922 1.44679 8.99866C1.36846 9.18019 1.07496 9.02985 1.24557 9.39547C1.02131 8.99753 0.047714 9.10759 0.00430926 9.04297C0.00471744 9.04297 0.00512561 9.04297 0.00553378 9.04297C-0.0205355 9.00469 0.044324 8.1083 0.225948 8.23527ZM100.834 7.64913C100.692 6.4902 100.636 8.32967 100.357 7.36915C99.9852 8.76397 101.384 7.36936 101.554 8.54748C100.034 8.41059 102.558 9.71485 101.497 7.95127C102.371 8.59136 101.783 7.73285 101.918 7.50814C102.063 7.26876 102.557 7.52891 102.532 7.09723C102.532 7.09723 102.531 7.09723 102.531 7.09723C102.229 7.12744 101.926 7.15766 101.624 7.18787C101.92 8.11906 101.302 7.83985 101.093 7.08112C101.006 7.27046 100.92 7.45979 100.834 7.64913ZM102.545 8.52331C102.515 8.50199 101.858 8.6325 101.9 8.8194C101.988 8.93861 102.921 8.79568 102.545 8.52331ZM105.439 8.31987C105.203 8.3176 104.838 8.13594 104.709 8.48705C104.946 8.48941 105.311 8.67118 105.439 8.31987ZM93.2818 8.2534C92.9808 8.54153 93.9074 8.62688 93.6393 8.28563C93.6261 8.26956 93.2966 8.23995 93.2818 8.2534ZM100.15 7.82437C99.8437 7.47019 99.9884 8.59753 100.215 8.30376C100.228 8.28644 100.164 7.84052 100.15 7.82437ZM0.687184 8.0983C0.707651 7.82209 1.53348 8.0161 1.67986 8.0137C1.59669 8.27044 0.663704 8.41494 0.687184 8.0983ZM105.855 7.28657C105.385 6.29341 104.747 7.44055 104.678 7.41548C104.608 7.38994 104.717 6.9558 104.701 6.94415C104.665 6.9198 103.925 6.95623 103.889 6.98645C103.863 7.01001 103.997 7.6201 103.845 7.81229C104.143 7.46562 105.496 7.6825 105.566 7.61489C105.621 7.56091 105.21 6.92024 105.854 7.28657C105.854 7.28657 105.854 7.28657 105.855 7.28657ZM104.503 7.28254C104.688 7.53827 104.169 7.57028 104.044 7.47591C103.765 7.26472 104.479 7.25224 104.503 7.28254ZM103.256 7.04687C103.196 6.98951 102.662 6.93741 102.616 7.22211C102.869 7.59144 103.39 7.18053 103.256 7.04687ZM97.3076 7.08514C97.1688 7.12162 96.787 6.90284 96.7651 7.15161C96.9041 7.11533 97.2858 7.33394 97.3076 7.08514ZM3.50481 5.92695C3.27418 5.71878 3.80852 5.63375 3.96441 5.73358C3.97287 5.89954 3.52444 5.94483 3.50481 5.92695ZM100.098 5.44556C100.016 5.3699 98.3388 5.55868 98.1035 5.67518C98.3336 5.86332 99.9955 5.87778 100.071 5.78596C100.093 5.75847 100.108 5.45746 100.098 5.44556ZM103.725 5.33075C103.878 4.96439 103.979 5.40378 103.998 5.4093C104.188 5.46536 104.582 5.38276 104.496 5.73561C104.16 5.59325 103.418 6.05827 103.725 5.33075ZM97.1884 5.42743C96.619 5.56338 97.7127 5.94935 97.5692 5.56641C97.56 5.54326 97.2473 5.41315 97.1884 5.42743ZM100.285 5.3388C100.411 5.04278 102.088 5.29807 102.358 5.29852C102.116 5.84452 101.922 5.4298 101.598 5.45764C101.51 5.4658 101.534 5.69295 101.524 5.69331C101.373 5.70383 101.486 5.44148 101.393 5.4375C101.334 5.4357 100.109 5.75589 100.285 5.3388ZM103.812 5.07695C103.906 4.86694 104.953 4.77742 104.996 4.83323C105.311 5.24831 103.894 5.15006 103.812 5.07695ZM100.131 4.85337C100.312 4.2188 101.145 4.64378 100.575 4.96013C100.52 4.9889 100.29 4.71383 100.131 4.85337ZM97.2492 4.82316C97.2212 4.8045 96.6276 4.67765 96.617 4.87956C96.7027 4.95802 97.5681 5.02841 97.2492 4.82316ZM97.557 4.14033C97.5427 4.14517 97.6819 4.53404 97.4035 4.48476C97.3803 4.48013 97.3371 4.04261 96.9872 4.20277C96.9162 4.23575 96.8062 4.52519 96.8141 4.54318C97.1785 5.22979 98.2757 3.91476 97.557 4.14033ZM103.831 4.72245C103.775 4.53777 103.911 3.98965 104.034 4.26723C104.087 4.38709 103.988 4.71604 103.831 4.72245ZM95.3667 4.64591C95.7118 4.31348 94.6285 4.25063 94.5732 4.33571C94.608 4.54278 95.3322 4.67837 95.3667 4.64591ZM4.04482 3.36081C4.04455 3.36081 4.04428 3.36081 4.044 3.36081C4.33431 3.43614 4.15449 3.71268 4.16809 3.72136C4.78644 4.12754 4.62243 3.5012 4.71912 3.42728C4.92646 3.26742 4.89306 4.0291 5.24281 3.7133C4.66468 4.17965 5.19092 3.98415 5.2073 4.25514C5.27209 5.36098 4.43757 3.73732 4.14931 3.96911C4.10915 4.00121 4.40569 4.35414 4.30279 4.45454C3.96823 4.77987 2.93088 3.07277 4.04482 3.36081ZM104.129 4.21889C104.263 3.89406 105.285 4.20912 105.014 4.47671C104.97 4.51961 103.931 4.69234 104.129 4.21889ZM56.409 3.73949C56.6545 3.45839 56.0855 3.12793 55.98 3.34672C55.9277 3.45572 56.3012 3.86286 56.409 3.73949ZM52.4195 2.537C52.1278 2.59406 51.8202 3.76631 52.1832 3.5844C52.2218 3.56451 52.453 2.6996 52.4195 2.537ZM71.5759 3.13925C71.2713 2.72033 71.2894 3.4987 71.5131 3.48772C71.592 3.48396 71.5855 3.15251 71.5759 3.13925ZM59.9495 3.23996C59.919 3.21279 59.5669 3.26249 59.5797 3.44139C59.7099 3.54872 60.1467 3.42648 59.9495 3.23996ZM71.6727 3.02847C71.492 3.16876 71.8029 3.73173 72.0237 3.18155C71.9116 3.22668 71.6912 3.01414 71.6727 3.02847ZM99.5019 3.13321C99.3507 3.45283 98.9228 3.35625 98.677 3.41118C98.6505 2.99709 99.3263 3.20829 99.5019 3.13321ZM53.6579 3.00833C53.3817 3.30017 53.9734 3.5391 53.9192 3.15335C53.9116 3.1324 53.6688 2.99588 53.6579 3.00833ZM81.4039 2.98617C81.2032 3.23318 81.8406 3.56536 81.6652 3.1312C81.6565 3.1135 81.4149 2.97243 81.4039 2.98617ZM84.1873 3.12918C84.035 3.04586 83.3855 3.0715 83.6383 3.31248C83.6775 3.34951 84.1758 3.35542 84.1873 3.12918ZM4.73627 3.12918C4.6542 2.70381 5.13054 2.80507 5.19873 2.87941C5.22552 2.91033 4.8433 3.6826 4.73627 3.12918ZM69.5975 3.07278C69.4399 3.126 69.0311 3.02487 68.9591 3.24802C69.1519 3.20183 69.6493 3.51731 69.5975 3.07278ZM54.9171 3.00631C54.6766 2.54409 54.2657 2.58971 54.3673 3.19364C54.8212 3.15317 54.3112 2.65081 54.9171 3.00631ZM72.6878 2.53095C72.5614 2.49569 72.4645 3.07567 72.4788 3.103C72.6158 3.36296 72.8134 2.75661 72.6878 2.53095ZM63.2031 3.00833C63.1957 2.76047 62.7906 2.87297 62.8447 3.0325C62.8624 3.08606 63.209 3.20891 63.2031 3.00833ZM94.1957 2.99222C94.01 2.76599 94.577 2.54482 94.7447 2.80892C94.8262 3.18948 94.2191 3.0182 94.1957 2.99222ZM76.1928 2.67598C76.2116 2.30815 75.5783 2.51612 75.8279 2.821C75.8903 2.89729 76.1862 2.79897 76.1928 2.67598ZM82.2554 2.23486C81.8306 2.6735 83.6143 2.9849 83.1456 2.4383C83.1121 2.39935 82.2924 2.19782 82.2554 2.23486ZM85.1685 2.5088C85.0952 2.46047 85.1318 1.22448 85.4351 1.70109C85.4749 1.7629 85.2886 2.08963 85.3212 2.16436C85.3403 2.20695 85.9998 2.38054 86.0302 2.35169C86.0628 2.31892 86.0244 1.92278 86.0575 1.87834C86.0949 1.82868 86.5008 2.17668 86.7135 2.18048C87.1141 2.187 87.1574 1.85728 87.1902 1.85619C87.2859 1.854 87.4468 2.08811 87.6408 2.08782C88.6188 2.08519 90.1146 1.8057 90.8899 2.50477C90.1999 2.22404 89.5425 2.52189 88.856 2.61354C89.057 1.92528 87.846 3.14384 88.5543 2.34967C88.2282 2.52194 85.4087 2.6597 85.1693 2.5088C85.1691 2.5088 85.1688 2.5088 85.1685 2.5088ZM51.2681 2.19055C51.4473 1.76854 50.5277 1.86346 50.4497 2.35169C50.5711 2.41944 51.2459 2.23838 51.2681 2.19055ZM55.5106 1.16127C55.596 1.08843 55.6771 0.263539 56.1249 0.681882C56.1253 0.681882 56.1257 0.681882 56.1261 0.681882C56.2571 0.804055 56.1079 1.00505 56.1319 1.07667C56.1406 1.10592 56.549 1.51626 56.2098 1.58225C55.6926 1.68349 56.1611 0.968579 55.8853 0.959848C55.8516 0.959172 55.3296 1.40568 55.36 1.50369C55.3631 1.51511 55.5202 1.42065 55.5461 1.46139C55.6441 1.61453 55.5964 1.87212 55.6102 1.88438C55.6554 1.9158 56.4808 1.47695 56.6009 1.86021C56.6399 1.9838 55.285 2.2689 55.2322 2.20465C55.1989 2.16416 55.2129 1.44913 55.1784 1.37881C55.1606 1.34378 54.6156 1.61172 54.5449 1.54599C54.5243 1.52698 54.5086 1.50648 54.4971 1.48959C54.5796 1.71081 54.0861 1.69488 54.1012 1.44528C54.1098 1.34717 54.4495 1.40396 54.4616 1.42111C54.467 1.42837 54.4716 1.43837 54.4759 1.44528C54.4056 1.17568 55.5556 1.18784 55.3073 0.786622C55.6407 0.566831 55.2601 1.3752 55.5106 1.16127ZM57.1131 0.720155C57.0787 0.79535 57.0443 0.870549 57.0098 0.945749C57.5935 0.761693 58.2669 1.12369 58.9393 1.12099C59.1099 1.12085 58.9136 0.660951 59.1372 0.786622C59.3164 0.887338 59.5147 1.31391 59.4173 1.40902C59.3935 1.43275 59.0288 1.15492 58.8462 1.18343C58.3073 1.26784 58.4434 1.66223 58.4119 1.67289C58.3772 1.6841 58.0379 1.40674 57.8527 1.41909C57.387 1.45102 57.1743 1.69315 56.538 1.37679C56.9052 1.11687 56.7041 0.552194 57.1131 0.720155ZM78.8675 1.56009C78.8897 1.31185 79.2716 1.5321 79.4104 1.49564C79.3886 1.74449 79.0064 1.52361 78.8675 1.56009ZM21.9534 1.23781C21.8361 1.64517 22.7154 1.74604 22.4837 1.40701C22.4324 1.33176 22.0639 1.24071 21.9534 1.23781ZM25.9033 1.48556C26.021 1.37294 25.5473 1.07964 25.5482 1.39492C25.5489 1.49602 25.8882 1.50021 25.9033 1.48556ZM64.6574 1.12099C64.6796 1.10823 65.0032 1.19896 65.0133 1.21968C65.2277 1.65222 64.1627 1.40223 64.6574 1.12099ZM30.7051 0.984015C30.2951 1.25102 31.5291 1.36675 31.152 1.02631C31.1333 1.00973 30.7248 0.971042 30.7051 0.984015ZM32.4202 0.909492C32.322 0.9238 31.8856 0.791224 31.8798 0.915534C31.8711 1.11607 32.3706 1.2531 32.4202 0.909492ZM72.7731 0.992076C72.7257 0.533087 73.3012 0.880679 73.5013 0.822882C73.5488 1.28219 72.9731 0.934115 72.7731 0.992076ZM69.1408 0.653685C71.5668 0.291861 71.032 1.27251 68.9963 0.877264C68.9933 0.582808 68.9876 0.676474 69.1408 0.653685ZM72.2474 0.708071C72.1592 1.00211 71.8837 0.914919 71.6976 0.891364C71.731 0.68693 72.1131 0.760916 72.2474 0.708071ZM20.9065 0.607355C21.0586 0.235907 21.7324 0.693838 21.6126 0.847048C21.5847 0.880133 20.8506 0.811624 20.9065 0.607355ZM64.8607 0.728212C64.8041 0.281832 65.5327 0.463911 65.5884 0.563044C65.8133 0.961786 64.9197 0.62969 64.8607 0.728212ZM76.2165 0.599299C76.3451 0.24966 76.7105 0.429492 76.9455 0.434135C76.8384 0.733104 76.4159 0.60559 76.2165 0.599299ZM74.5201 0.325366C74.5348 0.311946 74.8626 0.343512 74.8772 0.359607C75.1458 0.70111 74.2187 0.61365 74.5201 0.325366ZM3.64236 0.00308259C3.65328 -0.00818602 3.90147 0.0141071 3.91012 0.0272525C4.13165 0.362942 3.38675 0.29435 3.64236 0.00308259Z" fill="#DE1B1B"/>
</svg>
