<svg width="31" height="36" viewBox="0 0 31 36" fill="none" xmlns="http://www.w3.org/2000/svg">
<path d="M15.4423 0C17.7249 0.000135298 19.8667 1.06316 21.411 2.87109C22.9501 4.67312 23.7889 7.08102 23.7889 9.55762V10.3848H29.6346C29.9829 10.3848 30.3151 10.5305 30.5516 10.7861C30.7881 11.0418 30.9077 11.3843 30.8807 11.7314L29.3993 30.7998C29.2991 32.0898 28.789 33.3236 27.9257 34.2471C27.0574 35.1757 25.8829 35.7298 24.6219 35.7305H6.26257C5.00156 35.7298 3.82717 35.1758 2.95886 34.2471C2.14941 33.3813 1.65042 32.2429 1.50867 31.041L1.48523 30.7998L0.00378418 11.7314C-0.0231509 11.3843 0.0964546 11.0418 0.332886 10.7861C0.569448 10.5305 0.901594 10.3848 1.24988 10.3848H7.09656V9.55762C7.09657 7.08088 7.93523 4.67316 9.47449 2.87109C11.0188 1.06326 13.1597 0.000139903 15.4423 0ZM3.97742 30.6064C4.03758 31.3802 4.34162 32.0658 4.78503 32.54C5.22349 33.0089 5.75459 33.2301 6.26355 33.2305H24.62C25.1291 33.2302 25.6609 33.009 26.0995 32.54C26.5429 32.0658 26.8469 31.3802 26.9071 30.6064L28.2841 12.8848H23.7889V15.7881C23.7889 16.4782 23.229 17.0378 22.5389 17.0381C21.8486 17.0381 21.289 16.4784 21.2889 15.7881V12.8848H9.59656V15.7881C9.59648 16.4782 9.03666 17.0379 8.34656 17.0381C7.65625 17.0381 7.09664 16.4784 7.09656 15.7881V12.8848H2.60046L3.97742 30.6064ZM15.4423 2.5C13.9613 2.50014 12.4928 3.18761 11.3759 4.49512C10.2536 5.80901 9.59657 7.62774 9.59656 9.55762V10.3848H21.2889V9.55762C21.2889 7.62789 20.6318 5.80899 19.5096 4.49512C18.3926 3.1875 16.9232 2.50013 15.4423 2.5Z" fill="white"/>
</svg>
