<svg width="45" height="52" viewBox="0 0 45 52" fill="none" xmlns="http://www.w3.org/2000/svg">
<path d="M22.8145 0.00488281C26.0555 0.0992281 29.0752 1.64807 31.2686 4.21582C33.5244 6.85679 34.75 10.3799 34.75 14V15H43L43.208 15.0107C43.6882 15.0609 44.1367 15.2839 44.4678 15.6416C44.8463 16.0507 45.0373 16.5996 44.9941 17.1553L42.8545 44.6982C42.7066 46.6018 41.9537 48.427 40.6738 49.7959C39.3862 51.1729 37.6396 51.999 35.7598 52H9.24023C7.36045 51.999 5.61376 51.1729 4.32617 49.7959C3.04635 48.427 2.29335 46.6017 2.14551 44.6982L0.00585938 17.1553C-0.0373026 16.5996 0.153737 16.0507 0.532227 15.6416C0.910724 15.2326 1.44276 15 2 15H10.25V14C10.25 10.38 11.4757 6.85678 13.7314 4.21582C15.9955 1.5652 19.1403 4.53159e-05 22.5 0L22.8145 0.00488281ZM6.13379 44.3877V44.3887C6.21753 45.4662 6.64024 46.4133 7.24805 47.0635C7.84805 47.7052 8.56532 47.9995 9.24219 48H35.7578C36.4347 47.9996 37.1519 47.7052 37.752 47.0635C38.3598 46.4133 38.7825 45.4663 38.8662 44.3887V44.3877L40.8389 19H34.75V23C34.75 24.1046 33.8546 25 32.75 25C31.6455 24.9999 30.75 24.1045 30.75 23V19H14.25V23C14.25 24.1046 13.3546 25 12.25 25C11.1455 24.9999 10.25 24.1045 10.25 23V19H4.16113L6.13379 44.3877ZM22.5 4C20.4229 4.00005 18.3528 4.9633 16.7725 6.81348C15.1839 8.67336 14.25 11.255 14.25 14V15H30.75V14C30.75 11.2549 29.8162 8.67337 28.2275 6.81348C26.746 5.07907 24.8342 4.12445 22.8896 4.01172L22.5 4Z" fill="#191313"/>
</svg>
